<svg width="100%" height="100%" viewBox="0 0 384 384" fill="none" xmlns="http://www.w3.org/2000/svg">
   <path
      d="M149.333 298.667C140.895 298.667 132.646 301.169 125.629 305.857C118.613 310.546 113.144 317.209 109.914 325.006C106.685 332.802 105.84 341.381 107.486 349.657C109.133 357.934 113.196 365.536 119.163 371.503C125.13 377.47 132.733 381.534 141.009 383.18C149.286 384.827 157.865 383.982 165.661 380.752C173.457 377.523 180.121 372.054 184.809 365.038C189.498 358.021 192 349.772 192 341.334C191.989 330.021 187.49 319.175 179.491 311.176C171.492 303.177 160.646 298.678 149.333 298.667ZM149.333 362.667C145.114 362.667 140.989 361.416 137.481 359.072C133.973 356.727 131.239 353.396 129.624 349.497C128.009 345.599 127.587 341.31 128.41 337.172C129.233 333.033 131.265 329.232 134.248 326.249C137.232 323.265 141.033 321.233 145.171 320.41C149.31 319.587 153.599 320.009 157.497 321.624C161.395 323.239 164.727 325.973 167.071 329.481C169.415 332.99 170.667 337.114 170.667 341.334C170.661 346.99 168.412 352.413 164.412 356.412C160.413 360.412 154.99 362.661 149.333 362.667ZM277.333 298.667C268.895 298.667 260.646 301.169 253.629 305.857C246.613 310.546 241.144 317.209 237.914 325.006C234.685 332.802 233.84 341.381 235.486 349.657C237.133 357.934 241.196 365.536 247.163 371.503C253.131 377.47 260.733 381.534 269.009 383.18C277.286 384.827 285.865 383.982 293.661 380.752C301.457 377.523 308.121 372.054 312.809 365.038C317.498 358.021 320 349.772 320 341.334C319.989 330.021 315.49 319.175 307.491 311.176C299.492 303.177 288.646 298.678 277.333 298.667ZM277.333 362.667C273.114 362.667 268.989 361.416 265.481 359.072C261.973 356.727 259.239 353.396 257.624 349.497C256.009 345.599 255.587 341.31 256.41 337.172C257.233 333.033 259.265 329.232 262.248 326.249C265.232 323.265 269.033 321.233 273.171 320.41C277.31 319.587 281.599 320.009 285.497 321.624C289.395 323.239 292.727 325.973 295.071 329.481C297.416 332.99 298.667 337.114 298.667 341.334C298.661 346.99 296.412 352.413 292.412 356.412C288.412 360.412 282.99 362.661 277.333 362.667ZM376.427 75.3175C373.421 71.7649 369.676 68.9115 365.454 66.9567C361.231 65.0019 356.632 63.9929 351.979 64.0002H73.0347L66.8267 26.7415C65.6018 19.2585 61.751 12.4567 55.9649 7.55607C50.1787 2.65545 42.8359 -0.0233477 35.2533 0.000153326H10.6667C7.83769 0.000153326 5.12458 1.12396 3.1242 3.12435C1.12381 5.12474 0 7.83784 0 10.6668C0 13.4958 1.12381 16.2089 3.1242 18.2093C5.12458 20.2097 7.83769 21.3335 10.6667 21.3335H35.264C37.7912 21.326 40.2383 22.2197 42.1659 23.8541C44.0935 25.4884 45.3754 27.7564 45.7813 30.2508L53.4827 76.4268L79.5413 232.768C81.5845 245.236 88.0012 256.569 97.6414 264.735C107.282 272.902 119.515 277.368 132.149 277.334H309.035C321.668 277.364 333.899 272.896 343.538 264.73C353.178 256.565 359.595 245.234 361.643 232.768L383.563 101.259C384.331 96.6753 384.09 91.9791 382.856 87.4984C381.621 83.0178 379.434 78.8607 376.427 75.3175ZM340.608 229.259C339.379 236.74 335.527 243.539 329.742 248.439C323.957 253.339 316.616 256.019 309.035 256H132.149C124.567 256.024 117.224 253.345 111.438 248.444C105.652 243.544 101.801 236.742 100.576 229.259L76.608 85.3335H352C353.549 85.3327 355.08 85.6693 356.486 86.3201C357.892 86.9708 359.139 87.92 360.141 89.1016C361.143 90.2833 361.876 91.669 362.288 93.1625C362.7 94.6559 362.782 96.2212 362.528 97.7495L340.608 229.259Z"
      fill="black" />
</svg>